HIERARCHY
ROOT Hip
{
	OFFSET 0 0 0
	CHANNELS 6 Xposition Yposition Zposition Zrotation Yrotation Xrotation
	JOINT ShoulderCenter
	{
		OFFSET 0 43.63 0
		CHANNELS 3 Zrotation Yrotation Xrotation
		JOINT Head
		{
			OFFSET 0 18.49 0
			CHANNELS 3 Zrotation Yrotation Xrotation
			End Site
			{
				OFFSET 0.0 8.91 0.0
			}
		}
		JOINT ShoulderLeft
		{
			OFFSET -14 0 0
			CHANNELS 3 Zrotation Yrotation Xrotation
			JOINT ElbowLeft
			{
				OFFSET -25 0 0
				CHANNELS 3 Zrotation Yrotation Xrotation
				JOINT WristLeft
				{
					OFFSET -23 0 0
					CHANNELS 3 Zrotation Yrotation Xrotation
					End Site
					{
						OFFSET -8.32 0.0 0.0
					}
				}
			}
		}
		JOINT ShoulderRight
		{
			OFFSET 14 0 0
			CHANNELS 3 Zrotation Yrotation Xrotation
			JOINT ElbowRight
			{
				OFFSET 25 0 0
				CHANNELS 3 Zrotation Yrotation Xrotation
				JOINT WristRight
				{
					OFFSET 23 0 0
					CHANNELS 3 Zrotation Yrotation Xrotation
					End Site
					{
						OFFSET 8.32 0.0 0.0
					}
				}
			}
		}
	}
	JOINT HipLeft
	{
		OFFSET -9.52 0 0
		CHANNELS 3 Zrotation Yrotation Xrotation
		JOINT KneeLeft
		{
			OFFSET 0 -37.32 0
			CHANNELS 3 Zrotation Yrotation Xrotation
			JOINT AnkleLeft
			{
				OFFSET 0 -34.6 0
				CHANNELS 3 Zrotation Yrotation Xrotation
				End Site
				{
					OFFSET 0.0 0.0 8.91
				}
			}
		}
	}
	JOINT HipRight
	{
		OFFSET 9.52 0 0
		CHANNELS 3 Zrotation Yrotation Xrotation
		JOINT KneeRight
		{
			OFFSET 0 -37.32 0
			CHANNELS 3 Zrotation Yrotation Xrotation
			JOINT AnkleRight
			{
				OFFSET 0 -34.6 0
				CHANNELS 3 Zrotation Yrotation Xrotation
				End Site
				{
					OFFSET 0.0 0.0 8.91
				}
			}
		}
	}
}
MOTION
Frames: 63
Frame Time: 0.033333
0 0 0 0 0 0 0 0 0 0 0 0 0 0 0 0 0 0 0 0 0 0 0 0 0 0 0 0 0 0 0 0 0 0 0 0 0 0 0 0 0 0 0 0 0 0 0 0 
0 0 0 0 0 0 0 0 0 3.41509e-06 0 0 0 0 0 0 0 0 0 0 0 0 0 0 0 0 0 0 0 0 0 0 0 0 0 0 0 0 0 0 0 0 0 0 0 0 0 0 
0 0 0 0 0 0 0 0 0 0 0 0 0 0 0 0 0 0 0 0 0 0 0 0 0 0 0 0 0 0 0 0 0 0 0 0 0 0 0 0 0 0 0 0 0 0 0 0 
0 0 0 0 0 0 0 0 0 0 0 0 0 0 0 0 0 0 0 0 0 0 0 0 0 0 0 0 0 0 0 0 0 0 0 0 0 0 0 0 0 0 0 0 0 0 0 0 
0 0 0 0 0 0 0 0 0 0 0 0 0 0 0 0 0 0 0 0 0 0 0 0 0 0 0 0 0 0 0 0 0 0 0 0 0 0 0 0 0 0 0 0 0 0 0 0 
0 0 0 0 0 0 0 0 0 0 0 0 0 0 0 0 0 0 0 0 0 0 0 0 0 0 0 0 0 0 0 0 0 0 0 0 0 0 0 0 0 0 0 0 0 0 0 0 
0 0 0 0 0 0 0 0 0 0 0 0 0 0 0 0 0 0 0 0 0 0 0 0 0 0 0 0 0 0 0 0 0 0 0 0 0 0 0 0 0 0 0 0 0 0 0 0 
0 0 0 0 0 0 0 0 0 0 0 0 0 0 0 0 0 0 0 0 0 0 0 0 0 0 0 0 0 0 0 0 0 0 0 0 0 0 0 0 0 0 0 0 0 0 0 0 
44.4739 -26.2842 -90.6089 0 0 0 0 0 0 0 0 0 0 0 0 0 0 0 0 0 0 0 0 0 0 0 0 0 0 0 0 0 0 8.02639 -3.10611 4.75782 0 0 0 0 0 0 0 0 0 0 0 0 
44.4739 -26.2842 -90.6089 -89.8696 -65.4982 -54.2023 10.9014 42.6223 -22.902 0 0 0 0 0 0 0 0 0 0 0 0 0 0 0 0 0 0 0 0 0 -40.8712 -24.5736 74.5302 8.02639 -3.10611 4.75782 0 0 0 0 0 0 0 0 0 0 0 0 
44.4739 -26.2842 -90.6089 160.484 -63.1197 23.2214 -76.2686 75.6403 -147.08 0 0 0 0 0 0 0 0 0 0 0 0 0 0 0 0 0 0 0 0 0 -12.9493 -24.285 105.013 8.02639 -3.10611 4.75782 0 0 0 0 0 0 0 0 0 0 0 0 
44.4739 -26.2842 -90.6089 -100.352 -49.2012 -56.3167 6.82593 26.8845 -12.328 0 0 0 0 0 0 0 0 0 0 0 0 0 0 0 0 0 0 0 0 0 -59.3416 -25.1093 94.0414 8.02639 -3.10611 4.75782 0 0 0 0 0 0 0 0 0 0 0 0 
44.4739 -26.2842 -90.6089 -38.7344 -67.4166 -84.8964 -19.1233 61.4137 -52.7505 0 0 0 0 0 0 0 0 0 0 0 0 0 0 0 0 0 0 0 0 0 -35.9882 -19.6367 47.6224 8.02639 -3.10611 4.75782 0 0 0 0 0 0 0 0 0 0 0 0 
44.4739 -26.2842 -90.6089 163.762 -64.0576 22.7525 45.2472 69.2568 -24.0974 0 0 0 0 0 0 0 0 0 0 0 0 0 0 0 0 0 0 0 0 0 -13.5367 -24.5641 102.302 8.02639 -3.10611 4.75782 0 0 0 0 0 0 0 0 0 0 0 0 
44.7338 -26.4377 -91.1382 0 0 0 0 0 0 0 0 0 0 0 0 0 0 0 0 0 0 0 0 0 0 0 0 0 0 0 0 0 0 7.61139 -3.09789 4.74328 0 0 0 0 0 0 0 0 0 0 0 0 
44.7338 -26.4377 -91.1382 0 0 0 0 0 0 0 0 0 0 0 0 0 0 0 0 0 0 0 0 0 0 0 0 0 0 0 0 0 0 -2.4077 -1.90049 4.43788 0 0 0 0 0 0 0 0 0 0 0 0 
44.7338 -26.4377 -91.1382 158.547 -63.0736 28.4664 66.1821 13.4891 -3.00381 0 0 0 0 0 0 0 0 0 0 0 0 0 0 0 0 0 0 0 0 0 -10.5315 -24.7017 101.15 7.93921 -3.09705 4.75372 0 0 0 0 0 0 0 0 0 0 0 0 
44.7338 -26.4377 -91.1382 174.356 -72.1528 37.6735 49.211 30.1834 -13.2344 0 0 0 0 0 0 0 0 0 0 0 0 0 0 0 0 0 0 0 0 0 -9.4266 -24.6006 74.5203 7.93921 -3.09705 4.75372 0 0 0 0 0 0 0 0 0 0 0 0 
44.7338 -26.4377 -91.1382 -72.6547 -71.2616 -62.1167 4.72875 51.7036 -33.0043 0 0 0 0 0 0 0 0 0 0 0 0 0 0 0 0 0 0 0 0 0 -34.2372 -22.8846 61.9076 7.93921 -3.09705 4.75372 0 0 0 0 0 0 0 0 0 0 0 0 
44.7338 -26.4377 -91.1382 156.94 -62.4976 27.9301 63.1256 30.0834 -8.54814 -3.41509e-06 3.41509e-06 -1.01778e-13 0 0 0 0 0 0 0 0 0 0 0 0 0 0 0 0 0 0 -10.5098 -24.5007 103.307 7.93921 -3.09705 4.75372 0 0 0 0 0 0 0 0 0 0 0 0 
44.7338 -26.4377 -91.1382 94.6117 -69.8334 4.4533 -50.077 -11.6689 162.701 0 0 0 0 0 0 0 0 0 0 0 0 0 0 0 0 0 0 0 0 0 -1.23904 1.76268 -177.86 7.93921 -3.09705 4.75372 0 0 0 0 0 0 0 0 0 0 0 0 
44.7338 -26.4377 -91.1382 161.682 -63.4015 22.607 60.5196 30.5644 -8.83935 0 0 0 0 0 0 0 0 0 0 0 0 0 0 0 0 0 0 0 0 0 -13.3436 -24.3747 104.512 7.93921 -3.09705 4.75372 0 0 0 0 0 0 0 0 0 0 0 0 
44.7338 -26.4377 -91.1382 94.5807 -69.8608 4.41913 -50.0523 -11.6655 162.699 0 0 0 0 0 0 0 0 0 0 0 0 0 0 0 0 0 0 0 0 0 -1.22855 1.79215 -177.798 7.93921 -3.09705 4.75372 0 0 0 0 0 0 0 0 0 0 0 0 
44.7338 -26.4377 -91.1382 94.5459 -69.8917 4.38056 -50.0009 -11.7354 162.58 0 0 0 0 0 0 0 0 0 0 0 0 0 0 0 0 0 0 0 0 0 -1.2123 1.93763 -177.727 8.98204 -2.34317 3.45613 1.01778e-13 3.4151e-06 3.4151e-06 0 0 0 0 0 0 0 0 0 
44.7338 -26.4377 -91.1382 0 0 0 0 0 0 0 0 0 0 0 0 0 0 0 0 0 0 0 0 0 0 0 0 0 0 0 0 0 0 1.34043 -1.23587 170.158 0 0 0 0 0 0 0 0 0 0 0 0 
44.7338 -26.4377 -91.1382 -113.955 -60.7915 -43.923 22.4319 21.2457 -9.20691 -8.53774e-07 0 0 0 0 0 0 0 0 0 0 0 0 0 0 0 0 0 0 0 0 -26.815 -24.706 84.4615 -0.269531 -1.01394 177.389 0 0 0 0 0 0 0 0 0 0 0 0 
44.7338 -26.4377 -91.1382 95.8011 -69.9458 3.14316 -47.7879 -10.8354 162.23 0 0 0 0 0 0 0 0 0 0 0 0 0 0 0 0 0 0 0 0 0 -2.31725 -14.2822 -177.596 -0.269531 -1.01394 177.389 0 0 0 0 0 0 0 0 0 0 0 0 
44.7338 -26.4377 -91.1382 160.731 -63.1071 22.478 61.5049 65.3721 -9.18254 0 0 0 0 0 0 0 0 0 0 0 0 0 0 0 0 0 0 0 0 0 4.31281 -27.5617 97.8459 -0.269531 -1.01394 177.389 0 0 0 0 0 0 0 0 0 0 0 0 
44.7338 -26.4377 -91.1382 160.731 -63.1071 22.478 61.5049 65.3721 -9.18254 0 0 0 0 0 0 0 0 0 0 0 0 0 0 0 0 0 0 0 0 0 4.31281 -27.5617 97.8459 -0.269531 -1.01394 177.389 0 0 0 0 0 0 0 0 0 0 0 0 
44.7338 -26.4377 -91.1382 101.047 -66.1411 7.7623 -51.3621 -10.4325 163.326 0 0 0 0 0 0 0 0 0 0 0 0 0 0 0 0 0 0 0 0 0 -3.19087 -2.52838 173.026 7.93921 -3.09705 4.75372 0 0 0 0 0 0 0 0 0 0 0 0 
44.7338 -26.4377 -91.1382 160.731 -63.1071 22.478 38.9556 76.5575 -31.9142 0 0 0 0 0 0 0 0 0 0 0 0 0 0 0 0 0 0 0 0 0 -13.2767 -24.2544 105.584 7.93921 -3.09705 4.75372 0 0 0 0 0 0 0 0 0 0 0 0 
44.7338 -26.4377 -91.1382 -173.172 -65.1146 -1.65145 50.1972 26.4633 -7.48571 0 0 0 0 0 0 0 0 0 0 0 0 0 0 0 0 0 0 0 0 0 -25.0189 -24.18 106.215 7.93921 -3.09705 4.75372 0 0 0 0 0 0 0 0 0 0 0 0 
44.7338 -26.4377 -91.1382 -93.6491 -46.0354 -59.9914 1.36452 28.0072 -13.0517 0 0 0 0 0 0 0 0 0 0 0 0 0 0 0 0 0 0 0 0 0 133.632 24.6 95.8829 1.34043 -1.23587 170.158 0 0 0 0 0 0 0 0 0 0 0 0 
44.7338 -26.4377 -91.1382 -149.387 -62.3553 -23.8277 41.31 13.5569 -3.5211 0 0 0 0 0 0 0 0 0 0 0 0 0 0 0 0 0 0 0 0 0 160.323 27.6633 80.1201 1.34043 -1.23587 170.158 0 0 0 0 0 0 0 0 0 0 0 0 
44.7338 -26.4377 -91.1382 0 0 0 0 0 0 0 0 0 0 0 0 0 0 0 0 0 0 0 0 0 0 0 0 0 0 0 0 0 0 1.34043 -1.23587 170.158 0 0 0 0 0 0 0 0 0 0 0 0 
44.7338 -26.4377 -91.1382 164.784 -63.7279 18.4257 -106.606 61.7517 -175.422 0 0 0 0 0 0 0 0 0 0 0 0 0 0 0 0 0 0 0 0 0 -15.3848 -24.1995 106.051 7.93921 -3.09705 4.75372 0 0 0 0 0 0 0 0 0 0 0 0 
44.7338 -26.4377 -91.1382 164.784 -63.7279 18.4257 -107.373 59.3994 -176.188 0 0 3.41509e-06 0 0 0 0 0 0 0 0 0 0 0 0 0 0 0 0 0 0 -15.3848 -24.1995 106.051 7.93921 -3.09705 4.75372 0 0 0 0 0 0 0 0 0 0 0 0 
44.7338 -26.4377 -91.1382 164.744 -63.7203 18.4516 -84.7696 79.0171 -153.377 0 0 0 0 0 0 0 0 0 0 0 0 0 0 0 0 0 0 0 0 0 -15.3701 -24.1981 106.063 7.93921 -3.09705 4.75372 0 0 0 0 0 0 0 0 0 0 0 0 
44.7338 -26.4377 -91.1382 0 0 0 0 0 0 0 0 0 0 0 0 0 0 0 0 0 0 0 0 0 0 0 0 0 0 0 0 0 0 7.93921 -3.09705 4.75372 0 0 0 0 0 0 0 0 0 0 0 0 
44.7338 -26.4377 -91.1382 164.682 -63.7119 18.5104 -81.7915 76.5884 -150.6 0 0 0 0 0 0 0 0 0 0 0 0 0 0 0 0 0 0 0 0 0 -15.3399 -24.1987 106.059 7.93921 -3.09705 4.75372 0 0 0 0 0 0 0 0 0 0 0 0 
44.7338 -26.4377 -91.1382 165.219 -63.8371 18.3406 -58.8857 80.8325 -127.428 -5.08889e-14 -1.70755e-06 3.41509e-06 0 0 0 0 0 0 0 0 0 0 0 0 0 0 0 0 0 0 -15.4641 -24.239 105.717 7.93921 -3.09705 4.75372 0 0 0 0 0 0 0 0 0 0 0 0 
44.7338 -26.4377 -91.1382 123.212 -60.405 11.0257 -76.0064 -32.9147 167.307 0 0 0 0 0 0 0 0 0 0 0 0 0 0 0 0 0 0 0 0 0 -9.32632 -12.3431 150.754 7.93921 -3.09705 4.75372 0 0 0 0 0 0 0 0 0 0 0 0 
44.7338 -26.4377 -91.1382 0 0 0 0 0 0 0 0 0 0 0 0 0 0 0 0 0 0 0 0 0 0 0 0 0 0 0 0 0 0 7.93921 -3.09705 4.75372 0 0 0 0 0 0 0 0 0 0 0 0 
44.7338 -26.4377 -91.1382 0 0 0 0 0 0 0 0 0 0 0 0 0 0 0 0 0 0 0 0 0 0 0 0 0 0 0 0 0 0 7.93921 -3.09705 4.75372 0 0 0 0 0 0 0 0 0 0 0 0 
46.7024 -53.3053 -90.2007 72.8537 -63.6759 6.32267 -53.7486 -1.23265 179.571 0 0 0 109.189 0.110847 172.088 180 74.5919 180 0 0 0 0 0 0 0 0 0 0 0 0 2.40448 4.26442 -178.734 4.10161 -17.0418 26.2168 0 0 0 0 0 0 0 0 0 0 0 0 
46.7024 -53.3053 -90.2007 88.73 -57.3565 5.55085 -45.4155 0.310198 -179.498 0 0 0 148.296 0.103171 179.714 -180 69.3577 -180 0 0 0 0 0 0 0 0 0 0 0 0 -4.89247 -3.09564 168.382 4.10161 -17.0418 26.2168 0 0 0 0 0 0 0 0 0 0 0 0 
44.7338 -26.4377 -91.1382 0 0 0 0 0 0 0 0 0 0 0 0 0 0 0 0 0 0 0 0 0 0 0 0 0 0 0 0 0 0 -18.1686 -0.578567 4.87524 0 0 0 0 0 0 0 0 0 0 0 0 
44.7338 -26.4377 -91.1382 0 0 0 0 0 0 0 0 0 0 0 0 0 0 0 0 0 0 0 0 0 0 0 0 0 0 0 0 0 0 -18.1686 -0.578567 4.87524 0 0 0 0 0 0 0 0 0 0 0 0 
44.7338 -26.4377 -91.1382 162.171 -62.9663 17.962 -79.8971 78.1982 -149.816 0 0 0 0 0 0 0 0 0 0 0 0 0 0 0 0 0 0 0 0 0 -10.9173 -25.1102 107.304 -18.1686 -0.578567 4.87524 0 0 0 0 0 0 0 0 0 0 0 0 
44.7338 -26.4377 -91.1382 125.369 -60.4622 9.7705 -76.5471 -32.1503 167.173 0 0 0 0 0 0 0 0 0 0 0 0 0 0 0 0 0 0 0 0 0 -8.08921 -16.1968 149.613 -18.1686 -0.578567 4.87524 0 0 0 0 0 0 0 0 0 0 0 0 
44.7338 -26.4377 -91.1382 -144.408 -50.5213 -41.2892 35.2565 0.233634 -0.0309068 0 0 0 0 0 0 0 0 0 0 0 0 0 0 0 0 0 0 0 0 0 -47.628 -23.3026 122.413 -18.1686 -0.578567 4.87524 0 0 0 0 0 0 0 0 0 0 0 0 
44.7338 -26.4377 -91.1382 156.266 3.15998 -86.2221 -101.002 -55.3672 129.122 0 0 0 0 0 0 0 0 0 0 0 0 0 0 0 0 0 0 0 0 0 -85.9574 12.6718 -144.595 -18.1686 -0.578567 4.87524 0 0 0 0 0 0 0 0 0 0 0 0 
44.7338 -26.4377 -91.1382 155.83 1.76259 -86.4166 -99.8404 -55.4444 129.48 0 0 0 0 0 0 0 0 0 0 0 0 0 0 0 0 0 0 0 0 0 -84.4539 12.8181 -144.228 -18.1686 -0.578567 4.87524 0 0 0 0 0 0 0 0 0 0 0 0 
44.7338 -26.4377 -91.1382 129.237 -14.8051 -103.331 -103.985 -28.0021 158.611 0 0 0 0 0 0 0 0 0 0 0 0 0 0 0 0 0 0 0 0 0 -59.1663 22.939 -110.021 -18.1686 -0.578567 4.87524 0 0 0 0 0 0 0 0 0 0 0 0 
43.7654 -25.7083 -89.2001 125.451 -10.4684 -104.658 -109.48 -26.3175 160.096 0 0 0 0 0 0 0 0 0 0 0 0 0 0 0 0 0 0 0 0 0 -61.781 22.22 -105.839 -16.604 -0.537644 4.50451 0 0 0 0 0 0 0 0 0 0 0 0 
43.7654 -25.7083 -89.2001 102.088 -5.00575 -113.542 -129.182 -17.7444 170.84 0 0 0 0 0 0 0 0 0 0 0 0 0 0 0 0 0 0 0 0 0 -64.6041 23.7779 -80.4862 -16.604 -0.537644 4.50451 0 0 0 0 0 0 0 0 0 0 0 0 
43.7654 -25.7083 -89.2001 102.139 -5.20453 -113.562 -129.243 -17.3316 171.137 0 0 0 0 0 0 0 0 0 0 0 0 0 0 0 0 0 0 0 0 0 -64.3857 23.7771 -80.447 -16.604 -0.537644 4.50451 0 0 0 0 0 0 0 0 0 0 0 0 
43.8493 -28.0214 -88.6873 -170.346 -65.0134 -4.15193 44.8177 56.0248 -13.2738 0 0 0 0 0 0 0 0 0 0 0 0 0 0 0 0 0 0 0 0 0 -30.5841 -20.1277 106.004 20.859 -7.85839 8.53774 0 0 0 0 0 0 0 0 0 0 0 0 
43.8493 -28.0214 -88.6873 0 0 0 0 0 0 0 0 0 0 0 0 0 0 0 0 0 0 0 0 0 0 0 0 0 0 0 0 0 0 20.859 -7.85839 8.53774 0 0 0 0 0 0 0 0 0 0 0 0 
43.8493 -27.9132 -88.1992 0 0 0 0 0 0 0 0 0 0 0 0 0 0 0 0 0 0 0 0 0 0 0 0 0 0 0 0 0 0 21.1606 -8.0228 8.70607 0 0 0 0 0 0 0 0 0 0 0 0 
43.5292 -25.882 -88.6495 156.831 5.52803 -85.902 -104.432 -54.6047 130.173 0 0 0 0 0 0 0 0 0 0 0 0 0 0 0 0 0 0 0 0 0 -80.0566 17.5538 -143.026 21.9629 -6.61668 7.00945 0 0 0 0 0 0 0 0 0 0 0 0 
43.5292 -25.882 -88.6495 173.912 6.68138 -77.2587 -78.2319 -63.5066 95.8806 0 0 0 0 0 0 0 0 0 0 0 0 0 0 0 0 0 0 0 0 0 -88.3687 12.4618 -160.871 21.9629 -6.61668 7.00945 0 0 0 0 0 0 0 0 0 0 0 0 
43.5292 -25.882 -88.6495 -177.958 22.421 -74.3991 -58.2617 -61.9019 58.0844 -8.53774e-07 -1.27222e-14 -1.70755e-06 0 0 0 0 0 0 0 0 0 0 0 0 0 0 0 0 0 0 -106.309 11.198 -164.611 21.9629 -6.61668 7.00945 0 0 0 0 0 0 0 0 0 0 0 0 
